<svg xmlns="http://www.w3.org/2000/svg">
  <!-- transport -->
  <symbol id="bike" viewBox="0 0 24 21"><path d="M16 3.6c1 0 1.8-.8 1.8-1.8S17 0 16 0s-1.8.8-1.8 1.8.8 1.8 1.8 1.8zm3 7.4c-2.8 0-5 2.3-5 5s2.2 5 5 5 5-2.3 5-5-2.2-5-5-5zm0 8.6c-1.9 0-3.5-1.6-3.5-3.5s1.6-3.5 3.5-3.5 3.5 1.6 3.5 3.5-1.6 3.5-3.5 3.5zM14.8 8.9H19V7.1h-3.2l-1.9-3.3c-.3-.5-.8-.8-1.5-.8-.5 0-.9.2-1.2.5L7.5 7.2c-.3.3-.5.7-.5 1.2 0 .6.3 1.2.8 1.5l3.3 2v5H13v-6.5l-2.2-1.7 2.3-2.4 1.7 2.6zM5 11c-2.8 0-5 2.3-5 5s2.2 5 5 5 5-2.3 5-5-2.2-5-5-5zm0 8.6c-1.9 0-3.5-1.6-3.5-3.5s1.6-3.5 3.5-3.5 3.5 1.5 3.5 3.5-1.6 3.5-3.5 3.5z"/></symbol>
  <symbol id="bus" viewBox="0 0 17 21"><path d="M16.2 3.1c-.2-1.2-1-1.6-2.1-2.1-1.1-.4-3.7-1-5.6-1C6.6 0 4 .6 2.9 1c-1.1.5-1.8.9-2.1 2.1L0 9.5v8.8h1.4v1.4c0 1.7 2.5 1.7 2.5 0v-1.4h9.2v1.4c0 1.7 2.5 1.7 2.5 0v-1.4H17V9.5l-.8-6.4zM5 1.6h7c.7 0 .7 1 0 1H5c-.7.1-.7-1 0-1zm-2.3 14c-.6 0-1.2-.5-1.2-1.2s.5-1.2 1.2-1.2c.6 0 1.2.5 1.2 1.2-.1.6-.6 1.2-1.2 1.2zm5.7-5.4H2.2c-.6 0-.7-.4-.7-.9l.6-4.7c.1-.6.3-.9 1-.9h10.7c.7 0 .9.4 1 .9l.6 4.7c.1.4-.1.9-.7.9H8.4zm5.9 5.4c-.6 0-1.2-.5-1.2-1.2s.5-1.2 1.2-1.2c.6 0 1.2.5 1.2 1.2 0 .6-.5 1.2-1.2 1.2z"/></symbol>

  <!--social-->
  <symbol id="facebook" viewBox="0 0 11 21"><path d="M7.8 21H2.2v-9.8H0V6.4h2.1c-.1-2.2.3-3.8 1.3-4.9C4.2.6 5.5.1 7.1 0H11v4.7H7.9c-.1.2-.2.8-.2 1.7H11v4.8H7.8V21zm-4.4-1.1h3.1v-9.8h3.2V7.5H6.5v-.6c0-1.5 0-2.9.8-3.4l.2-.1h2.3V1.1H7.1c-1.2.1-2.2.5-2.8 1.2-.8.9-1.1 2.5-.9 4.6l.1.6H1.2v2.6h2.2v9.8z"/></symbol>
  <symbol id="instagram" version="1.1" id="Layer_1" x="0" y="0" viewBox="0 0 23 23" xml:space="preserve"><path class="st0" d="M17 1.5c2.5 0 4.5 2 4.5 4.5v11c0 2.5-2 4.5-4.5 4.5H6c-2.5 0-4.5-2-4.5-4.5V6c0-2.5 2-4.5 4.5-4.5h11M17 0H6C2.7 0 0 2.7 0 6v11c0 3.3 2.7 6 6 6h11c3.3 0 6-2.7 6-6V6c0-3.3-2.7-6-6-6z"/><path class="st0" d="M11.5 7.1c2.4 0 4.4 2 4.4 4.4 0 2.4-2 4.4-4.4 4.4-2.4 0-4.4-2-4.4-4.4 0-2.4 2-4.4 4.4-4.4m0-1.5c-3.3 0-5.9 2.7-5.9 5.9s2.7 5.9 5.9 5.9 5.9-2.7 5.9-5.9-2.6-5.9-5.9-5.9z"/><circle class="st0" cx="17.6" cy="5.4" r="1.3"/></symbol>

  <!--other-->
  <symbol id="business" viewBox="0 0 17 21"><path d="M16.4 15.1c-.9-1.2-2-2-3.6-2.4l-1.5 5.2c0 .5-.4.9-.9.9s-.9-.4-.9-.9v-4.2c0-.6-.5-1.1-1.1-1.1-.6 0-1.1.5-1.1 1.1v4.2c0 .5-.4.9-.9.9s-.9-.4-.9-.9L4 12.7c-1.6.4-2.7 1.2-3.6 2.4-.2.5-.4 1.5-.4 2v2.2c0 1 .8 1.7 1.7 1.7h13.5c1 0 1.7-.8 1.7-1.7v-1.8-.4c.1-.5-.1-1.5-.5-2zM3.9 4.6c0 2.6 1.6 6.3 4.6 6.3 2.9 0 4.6-3.8 4.6-6.3 0-2.6-2-4.6-4.6-4.6C6 0 3.9 2.1 3.9 4.6z" fill="#132576"/></symbol>
  <symbol id="close" viewBox="0 0 18.6 18.6"><path d="M11.4 9.3l6.7-6.7c.6-.6.6-1.5 0-2.1s-1.5-.6-2.1 0L9.3 7.2 2.6.4C2-.1 1-.1.4.4-.1 1-.1 2 .4 2.6l6.7 6.7L.4 16c-.6.6-.6 1.5 0 2.1s1.5.6 2.1 0l6.7-6.7 6.7 6.7c.6.6 1.5.6 2.1 0s.6-1.5 0-2.1l-6.6-6.7z"/></symbol>
  <symbol id="contacts-location" viewBox="0 0 28 43"><path d="M11.7 13.9c0-1.2 1-2.2 2.3-2.2s2.3 1 2.3 2.2c0 1.2-1 2.2-2.3 2.2-1.2 0-2.3-1-2.3-2.2zM14 8.1c-3.2 0-5.9 2.6-5.9 5.8s2.6 5.8 5.9 5.8c3.2 0 5.9-2.6 5.9-5.8 0-3.2-2.7-5.8-5.9-5.8zM0 13.6c0 9.1 10.9 16.2 11.7 26.7v.4c0 1.2 1 2.2 2.3 2.2s2.3-1 2.3-2.2v-.4C17.2 29.8 28 22.8 28 13.6 28 6.1 21.7 0 14 0S0 6.1 0 13.6zm14-9.1c5.2 0 9.5 4.2 9.5 9.4s-4.2 9.4-9.5 9.4-9.5-4.2-9.5-9.4S8.8 4.5 14 4.5z" fill="#010101"/></symbol>
  <symbol id="contacts-mail" viewBox="0 0 36 26"><path d="M0 23c0 1.6 1.3 3 3 3h30c1.7 0 3-1.3 3-3V3c0-1.6-1.3-3-3-3H3C1.3 0 0 1.3 0 3v20zm11-10L4.2 6.2c-.6-.6-.6-1.5 0-2 .6-.6 1.5-.6 2.1 0l11 10.9c.4.4 1.2.4 1.6 0l11-10.9c.6-.6 1.5-.6 2.1 0 .6.6.6 1.5 0 2L25 13l6.9 6.8c.6.6.6 1.5 0 2-.6.6-1.5.6-2.1 0L22.9 15s-2.1 2.2-2.5 2.5c-.6.6-1.4 1-2.4 1-.9 0-1.8-.4-2.4-1L13.1 15l-6.9 6.8c-.6.6-1.5.6-2.1 0-.6-.6-.6-1.5 0-2L11 13z" fill="#010101"/></symbol>
  <symbol id="contacts-phone" viewBox="0 0 36 36"><path d="M18 0C11.6 0 5.2 1.1 2.8 3.4.9 5.3.2 8.7 0 10.8v.3c0 .8.7 1.5 1.5 1.5.1 0 3.7-.3 5.9-.5h.2c.8 0 1.5-.7 1.5-1.5v-3C9 6.7 9.7 6 10.7 6h14.7c.8 0 1.6.7 1.6 1.7v3c0 .8.7 1.5 1.5 1.5h.2c2.2.2 5.8.5 5.9.5.8 0 1.5-.7 1.5-1.5v-.3c-.2-2.1-.9-5.5-2.8-7.4C30.8 1.1 24.4 0 18 0zm0 19.5c-1.7 0-3 1.3-3 3s1.3 3 3 3 3-1.3 3-3-1.3-3-3-3zm-2.3-6.8v-1.9c0-1-.8-1.9-1.9-1.9s-1.8.9-1.8 2v1.9L1.9 23.6c-.7.7-1.1 1.6-1.1 2.7v3c0 1.7 1.3 3 3 3h.8v1.9c0 1 .8 1.9 1.9 1.9s1.9-.8 1.9-1.9v-1.9h19.5v1.9c0 1 .8 1.9 1.9 1.9 1 0 1.9-.8 1.9-1.9v-1.9h.8c1.7 0 3-1.3 3-3v-3c0-1.1-.4-2-1.1-2.7L24 12.7v-1.9c0-1-.8-1.9-1.9-1.9s-1.9.8-1.9 1.9v1.9h-4.5zm2.3 3.8c3.3 0 6 2.7 6 6s-2.7 6-6 6-6-2.7-6-6 2.7-6 6-6z" fill="#010101"/></symbol>
  <symbol id="dots" version="1.1" id="Layer_1" x="0" y="0" viewBox="0 0 27 5" xml:space="preserve"><circle class="st0" cx="2.5" cy="2.5" r="2.5"/><circle class="st0" cx="13.5" cy="2.5" r="2.5"/><circle class="st0" cx="24.5" cy="2.5" r="2.5"/></symbol>
  <symbol id="dropdown.svg" viewBox="0 0 10 5"><path d="M5 5L0 0h10z"/></symbol>
  <symbol id="dropdown-form" viewBox="0 0 17 9"><path d="M8.5 7.2L1.3.2C1-.1.5-.1.2.2c-.3.3-.3.8 0 1L8 8.8c.3.3.8.3 1.1 0l7.7-7.5c.1-.2.2-.4.2-.6s-.1-.4-.2-.5c-.3-.3-.8-.3-1.1 0l-7.2 7z"/></symbol>
  <symbol id="filter" viewBox="0 0 15 10"><path d="M4 0h2v2H4zM0 0h3v2H0zM7 0h8v2H7zM4 8h2v2H4zM0 8h3v2H0zM7 8h8v2H7zM9 4h2v2H9zM12 4h3v2h-3zM0 4h8v2H0z"/></symbol>
  <symbol if="filter-close" viewBox="0 0 12 12"><path d="M6.9 6l4.9-4.9c.2-.2.2-.6 0-.9s-.6-.2-.9 0L6 5.1 1.1.2C.9 0 .5 0 .2.2s-.2.6 0 .9L5.1 6 .2 10.9c-.2.2-.2.6 0 .9.2.2.6.2.9 0L6 6.9l4.9 4.9c.2.2.6.2.9 0 .2-.2.2-.6 0-.9L6.9 6z" fill="#606161"/></symbol>
  <symbol id="heart" viewBox="0 0 20 17"><path d="M18.5 1.5c-2-2-5.3-2-7.3 0L10 2.7 8.8 1.5c-2-2-5.3-2-7.3 0s-2 5.2 0 7.2l1.2 1.2L10 17l7.3-7.2 1.2-1.2c2-1.9 2-5.1 0-7.1zm-3.6 8.3L10 14.6 5.1 9.8 2.7 7.5C1.4 6.1 1.4 4 2.7 2.7c1.3-1.3 3.5-1.3 4.9 0L10 5.1l2.4-2.4c1.3-1.3 3.5-1.3 4.9 0 1.3 1.3 1.3 3.5 0 4.8l-2.4 2.3z"/></symbol>
  <symbol id="heart-active" viewBox="0 0 13 11"><path d="M12 1a3.32 3.32 0 00-4.7 0l-.8.7-.8-.7A3.32 3.32 0 001 1C-.3 2.3-.3 4.4 1 5.6l.8.8L6.5 11l4.7-4.6.8-.8c1.3-1.3 1.3-3.4 0-4.6z"/></symbol>
  <symbol id="htmlacademy" viewBox="0 0 27 34">
    <path d="M13.6 0h-.2L0 1.4V26l13.5 8L27 26V1.4L13.6 0zm5.7 16.8l-.9.5-5-3v1.4l3.8 2.3-.8.5-3-1.8v1.4l1.9 1.1-1.8 1.1L2 13.6l11.4-6.8L25 13.5l-4.5 2.6-7.1-4.2v1.4l5.9 3.5zM1.9 15.1l11.4 6.8v1l-8-4.7v1.4l8 4.8v1.1l-8-4.7v1.4l8 4.8 8.2-4.9V17l3.4-2v10l-11.6 6.9-11.4-7v-9.8zm0-3v-9l11.6-1.2 11.6 1.2v9L13.5 5.3v-.1h-.2v.1L1.9 12.1z" fill="#231f20"/>
  </symbol>
</svg>
